<?xml version="1.0" encoding="UTF-8"?>
<!DOCTYPE svg PUBLIC "-//W3C//DTD SVG 1.1//EN" "http://www.w3.org/Graphics/SVG/1.1/DTD/svg11.dtd">
<!-- Creator: CorelDRAW X8 -->
<svg xmlns="http://www.w3.org/2000/svg" xml:space="preserve" width="230mm" height="330mm" version="1.1" style="shape-rendering:geometricPrecision; text-rendering:geometricPrecision; image-rendering:optimizeQuality; fill-rule:evenodd; clip-rule:evenodd"
viewBox="0 0 23000 33000"
 xmlns:xlink="http://www.w3.org/1999/xlink">
 <defs>
  <style type="text/css">
   <![CDATA[
    .fil2 {fill:#FEFEFE}
    .fil0 {fill:#D2D3D5}
    .fil1 {fill:black}
   ]]>
  </style>
 </defs>
 <g id="Capa_x0020_1">
  <metadata id="CorelCorpID_0Corel-Layer"/>
  <g id="_3059811662752">
   <rect class="fil0" x="2206" y="11381" width="13467" height="13467" rx="2646" ry="2646"/>
   <path class="fil1" d="M11962 22282l-936 0c-315,0 -572,-257 -572,-572 0,-315 257,-572 572,-572l936 0 0 -936c0,-315 257,-572 573,-572 315,0 572,257 572,572l0 936 936 0c315,0 572,257 572,572 0,315 -257,572 -572,572l-936 0 0 936c0,316 -257,572 -572,572 -316,0 -573,-256 -573,-572l0 -936z"/>
   <path class="fil1" d="M10195 17281l782 0c175,0 325,97 396,258 71,160 42,336 -76,466l-4068 4460c-145,158 -379,187 -558,69 -179,-118 -244,-344 -156,-539l1098 -2424 -765 0c-171,0 -318,-93 -391,-248 -73,-155 -52,-328 57,-460l4184 -5081c137,-166 370,-207 555,-97 185,110 261,335 180,534l-1238 3062z"/>
   <path class="fil1" d="M5917 13948l936 0c315,0 572,257 572,572 0,316 -257,572 -572,572l-936 0 0 936c0,316 -257,573 -572,573 -316,0 -573,-257 -573,-573l0 -936 -935 0c-316,0 -573,-256 -573,-572 0,-315 257,-572 573,-572l935 0 0 -936c0,-315 257,-572 573,-572 315,0 572,257 572,572l0 936z"/>
   <path class="fil2" d="M5345 12754l0 0c-142,0 -258,116 -258,258l0 1250 -1250 0c-142,0 -258,116 -258,258l0 0c0,142 116,258 258,258l1250 0 0 1250c0,142 116,258 258,258l0 0c142,0 258,-116 258,-258l0 -1250 1250 0c142,0 258,-116 258,-258l0 0c0,-142 -116,-258 -258,-258l-1250 0 0 -1250c0,-142 -116,-258 -258,-258z"/>
   <path class="fil2" d="M12535 23476l0 0c141,0 258,-116 258,-258l0 -1250 1250 0c142,0 258,-116 258,-258l0 0c0,-142 -116,-258 -258,-258l-1250 0 0 -1250c0,-142 -117,-258 -258,-258l0 0c-142,0 -258,116 -258,258l0 1250 -1251 0c-141,0 -258,116 -258,258l0 0c0,142 117,258 258,258l1251 0 0 1250c0,142 116,258 258,258z"/>
   <polygon class="fil2" points="6848,19138 11032,14057 9553,17713 10977,17713 6909,22173 8284,19138 "/>
  </g>
 </g>
</svg>
